<?xml version="1.0" encoding="UTF-8"?>
<svg width="13px" height="24px" viewBox="0 0 13 24" version="1.1" xmlns="http://www.w3.org/2000/svg" xmlns:xlink="http://www.w3.org/1999/xlink">
    <!-- Generator: Sketch 47 (45396) - http://www.bohemiancoding.com/sketch -->
    <title>facebook-logo</title>
    <desc>Created with Sketch.</desc>
    <defs></defs>
    <g id="Page-1" stroke="none" stroke-width="1" fill="none" fill-rule="evenodd">
        <g id="editorial_article_final" transform="translate(-573.000000, -461.000000)" fill="#4267B2">
            <g id="bg" transform="translate(273.000000, 211.500000)">
                <g id="Group-2" transform="translate(281.000000, 30.000000)">
                    <g id="social" transform="translate(2.000000, 206.500000)">
                        <g id="fb">
                            <path d="M29.3481385,13.1606077 L26.2703622,13.1559871 C22.8129945,13.1559871 20.5780345,15.4444516 20.5780345,18.9857341 L20.5780345,21.6740407 L17.4832846,21.6740407 C17.2169534,21.6740407 17,21.889364 17,22.1564388 L17,26.0516648 C17,26.3175074 17.2169534,26.5340629 17.4832846,26.5340629 L20.5780345,26.5340629 L20.5780345,36.3616148 C20.5780345,36.6274575 20.794988,36.8440129 21.0625536,36.8440129 L25.0985667,36.8440129 C25.3661323,36.8440129 25.5830858,36.6274575 25.5830858,36.3616148 L25.5830858,26.5340629 L29.2009311,26.5340629 C29.4684967,26.5340629 29.6845243,26.3175074 29.6845243,26.0516648 L29.6866846,22.1564388 C29.6866846,22.0289083 29.634838,21.9063065 29.544415,21.8148172 C29.453992,21.7245601 29.3311649,21.6740407 29.2021655,21.6740407 L25.5830858,21.6740407 L25.5830858,19.3951256 C25.5830858,18.3000265 25.8447878,17.7440057 27.2733475,17.7440057 L29.346904,17.7427735 C29.6144697,17.7427735 29.8301887,17.5262181 29.8301887,17.2603754 L29.8301887,13.6445461 C29.8301887,13.3771632 29.6144697,13.1618399 29.3481385,13.1606077 Z" id="facebook-logo"></path>
                        </g>
                    </g>
                </g>
            </g>
        </g>
    </g>
</svg>