<?xml version="1.0" encoding="UTF-8"?>
<svg width="26px" height="22px" viewBox="0 0 26 22" version="1.1" xmlns="http://www.w3.org/2000/svg" xmlns:xlink="http://www.w3.org/1999/xlink">
    <!-- Generator: Sketch 47 (45396) - http://www.bohemiancoding.com/sketch -->
    <title>twitter-logo-silhouette</title>
    <desc>Created with Sketch.</desc>
    <defs></defs>
    <g id="Page-1" stroke="none" stroke-width="1" fill="none" fill-rule="evenodd">
        <g id="editorial_article_final" transform="translate(-821.000000, -462.000000)" fill="#1DA1F2">
            <g id="bg" transform="translate(273.000000, 211.500000)">
                <g id="Group-2" transform="translate(281.000000, 30.000000)">
                    <g id="social" transform="translate(2.000000, 206.500000)">
                        <g id="vk-copy" transform="translate(248.000000, 0.000000)">
                            <path d="M42.990566,17.1564743 C42.0386755,17.5675232 41.0076299,17.8520956 39.929903,17.976596 C41.0319853,17.334332 41.8722469,16.3165906 42.2761407,15.1032056 C41.2450951,15.6980409 40.1044501,16.130828 38.8826205,16.3620431 C37.9165226,15.358135 36.5282643,14.725752 34.9979328,14.725752 C32.0570172,14.725752 29.6701872,17.0497596 29.6701872,19.913269 C29.6701872,20.3223418 29.718898,20.715605 29.8061715,21.0950348 C25.3734872,20.8776531 21.4502368,18.8164797 18.817823,15.6743265 C18.3570999,16.4391148 18.0952793,17.334332 18.0952793,18.2848827 C18.0952793,20.083222 19.0390513,21.6740605 20.4658724,22.5989207 C19.5931369,22.5771825 18.7772307,22.3380627 18.0567165,21.9507281 L18.0567165,22.0139664 C18.0567165,24.5296651 19.8955499,26.6283863 22.3290611,27.1086022 C21.8845749,27.2232216 21.4096444,27.2844837 20.9265955,27.2844837 C20.5856198,27.2844837 20.2527625,27.2548407 19.9199053,27.1935786 C20.6018567,29.2547521 22.5665263,30.7507332 24.8985567,30.7981619 C23.0739307,32.1874283 20.7743742,33.0134787 18.2779448,33.0134787 C17.8496956,33.0134787 17.4295648,32.9897643 17.009434,32.9443118 C19.3719086,34.4185547 22.170751,35.274248 25.1827031,35.274248 C34.9816959,35.274248 40.3419154,27.3694602 40.3419154,20.5160091 L40.3256784,19.8441021 C41.372961,19.1109331 42.2761407,18.1999063 42.990566,17.1564743 Z" id="twitter-logo-silhouette"></path>
                        </g>
                    </g>
                </g>
            </g>
        </g>
    </g>
</svg>