<?xml version="1.0" encoding="UTF-8"?>
<svg width="30px" height="18px" viewBox="0 0 30 18" version="1.1" xmlns="http://www.w3.org/2000/svg" xmlns:xlink="http://www.w3.org/1999/xlink">
    <!-- Generator: Sketch 47 (45396) - http://www.bohemiancoding.com/sketch -->
    <title>vk-social-logotype</title>
    <desc>Created with Sketch.</desc>
    <defs></defs>
    <g id="Page-1" stroke="none" stroke-width="1" fill="none" fill-rule="evenodd">
        <g id="editorial_article_final" transform="translate(-744.000000, -464.000000)" fill="#5B88BD">
            <g id="bg" transform="translate(273.000000, 211.500000)">
                <g id="Group-2" transform="translate(281.000000, 30.000000)">
                    <g id="social" transform="translate(2.000000, 206.500000)">
                        <g id="vk" transform="translate(173.000000, 0.000000)">
                            <path d="M42.9961981,30.0272226 C42.1514647,29.0034493 41.1591507,28.130755 40.2200685,27.2042364 C39.3723981,26.3675486 39.3176979,25.8831308 40.0005332,24.9176361 C40.7432085,23.8649091 41.5435209,22.8526431 42.2935385,21.8043705 C42.9932612,20.8240277 43.7102383,19.8470258 44.0788226,18.6736583 C44.3126754,17.9286572 44.1059892,17.5979168 43.3489964,17.467254 C43.2183032,17.4442395 43.0835717,17.4442395 42.9503086,17.4442395 L38.4604825,17.4383003 C37.9068719,17.4297626 37.6014315,17.6732707 37.4061259,18.1691957 C37.1410683,18.8392141 36.8697697,19.5088614 36.5544173,20.1558653 C35.8418455,21.6202546 35.04447,23.0382437 33.9273367,24.2375953 C33.6806348,24.5015194 33.4082349,24.836343 32.9966981,24.6986274 C32.4801662,24.5085723 32.3296487,23.6503548 32.336991,23.3600753 L32.3325856,18.1198259 C32.2338315,17.3718552 32.0686294,17.0366604 31.3343978,16.8918919 L26.6694574,16.8930055 C26.0471961,16.8930055 25.7344135,17.1354 25.4018066,17.5296158 C25.209805,17.7575334 25.1525349,17.9052716 25.5468173,17.9806254 C26.3210645,18.1287348 26.7571981,18.6346822 26.8732067,19.4205154 C27.058233,20.6748048 27.045384,21.9335485 26.9392875,23.1919211 C26.9077155,23.5601528 26.8445716,23.927271 26.6995609,24.2695186 C26.4745189,24.810359 26.11034,24.9191209 25.6327224,24.5868957 C25.1995258,24.2865939 24.8940854,23.8634243 24.5974559,23.436914 C23.478854,21.8392634 22.5852942,20.1150332 21.8584049,18.3039418 C21.6476804,17.7805479 21.2846029,17.4631708 20.7368662,17.4557467 C19.388817,17.4342171 18.0422362,17.4297626 16.694187,17.4557467 C15.8839625,17.4717084 15.6431345,17.8688938 15.9731716,18.6127813 C17.4401663,21.9131325 19.0734645,25.1217969 21.2045717,28.0438939 C22.3000452,29.5446609 23.5563155,30.8683649 25.1797015,31.8063907 C27.0193187,32.8706249 28.9999085,33.1898581 31.0865946,33.0911185 C32.0631226,33.0447184 32.3571824,32.7882182 32.4016034,31.8034211 C32.4331754,31.1308042 32.5076999,30.4607858 32.8373699,29.8560988 C33.1585962,29.2618055 33.6475944,29.1485891 34.2111172,29.5183056 C34.4923279,29.7039063 34.7287504,29.9388767 34.9541595,30.1868392 C35.5033648,30.7959806 36.0338471,31.4221973 36.6047121,32.0094378 C37.3202208,32.7462725 38.1678912,33.1809493 39.2332612,33.0926033 L43.3618454,33.0926033 C44.0259579,33.0491728 44.3714139,32.2239922 43.9899806,31.4745367 C43.721986,30.9481732 43.3691878,30.4797171 42.9961981,30.0272226 Z" id="vk-social-logotype"></path>
                        </g>
                    </g>
                </g>
            </g>
        </g>
    </g>
</svg>